<?xml version="1.0" standalone="no"?>
<!DOCTYPE svg PUBLIC "-//W3C//DTD SVG 20010904//EN"
 "http://www.w3.org/TR/2001/REC-SVG-20010904/DTD/svg10.dtd">
<svg version="1.0" xmlns="http://www.w3.org/2000/svg"
 width="512.000000pt" height="512.000000pt" viewBox="0 0 512.000000 512.000000"
 preserveAspectRatio="xMidYMid meet">

<g transform="translate(0.000000,512.000000) scale(0.100000,-0.100000)"
fill="#000000" stroke="none">
<path d="M782 4818 c-17 -17 -17 -4499 0 -4516 16 -16 2301 -17 2380 -1 80 16
210 83 267 136 28 27 246 309 486 627 l435 579 0 1582 c0 1216 -3 1584 -12
1593 -17 17 -3539 17 -3556 0z m3348 -352 l0 -144 -29 29 c-28 27 -34 29 -110
29 l-81 0 0 77 c0 90 -20 123 -76 123 -55 0 -77 -27 -81 -101 -7 -115 -2 -109
-94 -109 -72 0 -82 -3 -104 -25 -33 -32 -33 -78 0 -110 21 -22 33 -25 100 -25
l75 0 0 -97 c0 -86 3 -99 22 -120 41 -44 120 -21 132 39 3 13 7 56 9 96 2 40
7 75 10 78 3 4 45 9 93 12 74 4 92 9 111 28 l23 23 0 -1253 c0 -991 -3 -1256
-13 -1263 -6 -6 -254 -121 -549 -258 -295 -136 -539 -253 -541 -260 -10 -23
11 -37 84 -57 89 -23 123 -43 179 -104 65 -70 85 -123 85 -224 0 -66 -5 -96
-22 -132 -30 -66 -105 -143 -172 -175 l-56 -28 -1067 -3 -1068 -2 0 2050 0
2050 1570 0 1570 0 0 -144z m-270 -3091 c0 -10 -262 -355 -270 -355 -4 0 -17
23 -28 51 -12 27 -35 70 -52 95 l-30 45 118 54 c64 30 144 68 177 84 58 29 85
37 85 26z"/>
<path d="M3278 4473 c-40 -42 -166 -247 -206 -332 -45 -99 -93 -182 -219 -377
-65 -102 -103 -171 -103 -188 0 -51 62 -90 113 -70 9 3 47 54 87 114 l71 108
97 17 c53 9 142 27 197 38 l100 22 53 -109 c41 -83 68 -123 116 -172 70 -72
97 -80 142 -41 41 36 37 74 -15 134 -94 106 -199 371 -266 673 -40 182 -55
210 -110 210 -21 0 -40 -9 -57 -27z m36 -317 c4 -24 18 -78 31 -121 16 -54 20
-77 12 -80 -21 -7 -212 -43 -214 -41 -1 1 26 58 60 127 96 189 100 193 111
115z"/>
<path d="M2182 3913 c-11 -10 -111 -171 -222 -358 -112 -187 -206 -344 -210
-349 -5 -4 -41 27 -81 70 -181 194 -192 204 -235 204 -66 0 -109 -61 -85 -121
11 -28 334 -378 365 -396 27 -15 58 -16 89 -2 16 7 103 142 275 429 275 455
279 464 227 515 -30 31 -92 34 -123 8z"/>
<path d="M2181 2951 c-10 -10 -110 -171 -221 -357 -112 -187 -206 -343 -210
-348 -5 -4 -41 27 -81 70 -181 194 -192 204 -235 204 -64 0 -108 -60 -87 -118
4 -11 87 -107 183 -211 141 -154 181 -192 208 -197 71 -14 71 -13 341 436 273
455 277 464 226 515 -30 31 -96 34 -124 6z"/>
<path d="M2181 1991 c-10 -10 -110 -171 -221 -357 -112 -187 -206 -343 -211
-348 -4 -5 -43 29 -86 75 -175 189 -186 199 -230 199 -65 0 -108 -61 -84 -121
9 -22 322 -368 359 -396 20 -16 63 -17 96 -2 17 8 99 136 275 429 273 455 277
464 226 515 -30 31 -96 34 -124 6z"/>
</g>
</svg>
