<?xml version="1.0" standalone="no"?>
<!DOCTYPE svg PUBLIC "-//W3C//DTD SVG 20010904//EN"
 "http://www.w3.org/TR/2001/REC-SVG-20010904/DTD/svg10.dtd">
<svg version="1.0" xmlns="http://www.w3.org/2000/svg"
 width="592.000000pt" height="592.000000pt" viewBox="0 0 592.000000 592.000000"
 preserveAspectRatio="xMidYMid meet">

<g transform="translate(0.000000,592.000000) scale(0.100000,-0.100000)"
fill="#000000" stroke="none">
<path d="M4326 5101 l-400 -400 21 -233 22 -233 -534 -535 c-369 -370 -539
-546 -550 -572 -36 -88 2 -190 87 -234 32 -17 115 -18 155 -3 15 5 269 251
564 545 l536 536 238 -22 238 -22 400 400 c221 221 399 403 397 405 -3 3 -160
19 -349 36 -189 17 -346 33 -349 35 -2 3 -18 160 -35 350 -17 191 -34 346 -37
346 -3 0 -185 -180 -404 -399z"/>
<path d="M2765 5433 c-100 -6 -283 -32 -404 -59 -615 -137 -1179 -527 -1533
-1059 -557 -838 -555 -1944 5 -2780 250 -373 593 -669 1002 -866 952 -457
2081 -273 2839 461 493 478 758 1105 759 1795 1 300 -42 558 -137 831 -42 119
-120 297 -132 301 -5 2 -84 -72 -176 -164 l-167 -168 25 -70 c91 -245 128
-449 128 -715 1 -223 -11 -328 -60 -518 -208 -818 -879 -1410 -1729 -1528
-148 -20 -462 -15 -600 10 -664 121 -1205 520 -1500 1107 -88 173 -155 380
-191 584 -25 139 -29 440 -9 590 19 142 69 350 110 459 217 573 664 1012 1243
1220 332 119 739 147 1097 75 55 -11 164 -42 243 -68 l144 -48 170 169 c94 93
167 172 162 177 -5 4 -47 25 -94 46 -372 166 -780 241 -1195 218z"/>
<path d="M2725 4514 c-189 -28 -358 -80 -508 -154 -325 -161 -581 -420 -737
-745 -281 -588 -172 -1301 271 -1769 200 -212 399 -340 658 -426 290 -96 569
-113 856 -50 665 146 1161 690 1245 1364 16 123 8 379 -15 496 -24 121 -85
301 -140 409 l-47 94 -170 -170 -170 -170 27 -74 c123 -343 76 -733 -126
-1030 -118 -174 -323 -338 -520 -416 -698 -277 -1462 173 -1559 917 -14 107
-12 188 5 306 38 251 151 470 333 646 227 219 482 321 797 321 152 0 237 -14
380 -62 l83 -29 168 169 c92 92 166 170 164 172 -17 15 -180 90 -255 117 -186
66 -279 82 -505 85 -113 2 -218 1 -235 -1z"/>
<path d="M2752 3590 c-113 -30 -223 -92 -306 -174 -85 -83 -134 -160 -173
-271 -25 -72 -28 -93 -28 -215 0 -115 3 -145 23 -205 69 -208 237 -378 439
-445 181 -60 407 -36 570 62 77 45 190 160 236 238 69 118 115 326 93 415 -7
27 -11 24 -159 -123 -178 -176 -232 -209 -360 -219 -130 -10 -223 23 -317 113
-98 93 -145 231 -122 355 22 117 50 161 212 324 83 83 150 154 150 158 0 15
-186 6 -258 -13z"/>
</g>
</svg>
