<?xml version="1.0" standalone="no"?>
<!DOCTYPE svg PUBLIC "-//W3C//DTD SVG 20010904//EN"
 "http://www.w3.org/TR/2001/REC-SVG-20010904/DTD/svg10.dtd">
<svg version="1.0" xmlns="http://www.w3.org/2000/svg"
 width="899.000000pt" height="899.000000pt" viewBox="0 0 899.000000 899.000000"
 preserveAspectRatio="xMidYMid meet">

<g transform="translate(0.000000,899.000000) scale(0.100000,-0.100000)"
fill="#000000" stroke="none">
<path d="M1064 8585 c-142 -31 -283 -112 -380 -218 -60 -66 -142 -221 -165
-312 -18 -68 -26 -7093 -9 -7225 23 -171 86 -298 209 -420 89 -88 197 -150
317 -180 76 -20 124 -20 2799 -20 2675 0 2723 0 2799 20 120 30 228 92 317
180 120 119 185 249 208 413 8 53 11 567 11 1608 0 1394 -1 1530 -16 1536 -12
4 -100 -78 -318 -296 l-301 -301 -5 -1188 -5 -1187 -28 -56 c-49 -102 -143
-170 -258 -189 -89 -14 -4799 -14 -4888 0 -142 24 -242 113 -276 248 -13 51
-15 479 -13 3433 l3 3374 28 60 c36 76 110 147 183 175 54 20 67 20 1549 20
l1494 0 4 -817 c3 -709 5 -825 19 -869 82 -268 349 -434 745 -463 65 -5 123
-6 129 -3 7 4 132 125 279 270 173 170 265 268 261 277 -4 12 -59 14 -318 17
l-313 3 -53 29 c-72 40 -135 110 -161 180 -21 56 -21 65 -19 612 l3 555 245
-223 c690 -626 933 -843 947 -847 17 -3 383 355 383 376 0 14 -56 65 -850 773
-605 539 -730 652 -735 660 -4 7 -685 10 -1883 9 -1525 0 -1889 -3 -1938 -14z"/>
<path d="M7435 7154 c-72 -18 -159 -51 -215 -81 -57 -31 -245 -215 -1456
-1425 l-1392 -1390 -115 -307 c-64 -168 -159 -421 -212 -561 -105 -276 -265
-699 -351 -928 -30 -79 -54 -145 -54 -148 0 -10 34 -1 155 45 72 27 236 88
365 136 129 47 372 138 540 200 168 63 440 164 605 225 l300 111 1369 1367
c1034 1033 1380 1384 1415 1438 120 180 150 409 81 609 -44 127 -77 173 -270
368 -203 207 -273 261 -402 309 -75 28 -96 31 -213 34 -71 2 -139 1 -150 -2z
m241 -536 c25 -11 90 -68 162 -142 109 -111 122 -128 137 -181 33 -113 4 -182
-136 -321 l-99 -99 -262 263 -263 262 95 96 c124 125 187 158 280 147 24 -2
63 -14 86 -25z m-1183 -1990 l-1018 -1018 -262 262 -263 263 1017 1017 1018
1018 262 -262 263 -263 -1017 -1017z m-1538 -1018 c259 -259 260 -260 240
-280 -11 -10 -200 -86 -420 -168 -495 -185 -448 -170 -434 -135 87 227 289
766 289 773 0 11 49 70 58 70 4 0 124 -117 267 -260z"/>
<path d="M1730 4965 l0 -245 1065 0 1065 0 0 245 0 245 -1065 0 -1065 0 0
-245z"/>
<path d="M1730 3635 l0 -245 961 2 961 3 89 234 c49 128 89 237 89 242 0 5
-436 9 -1050 9 l-1050 0 0 -245z"/>
<path d="M5410 2609 c-128 -47 -412 -150 -870 -314 -113 -41 -250 -90 -305
-110 -55 -20 -152 -55 -215 -77 -63 -23 -119 -45 -124 -49 -6 -5 358 -9 822
-9 l832 0 0 305 c0 168 -1 305 -2 304 -2 0 -64 -23 -138 -50z"/>
<path d="M1734 2537 c-2 -7 -3 -118 -2 -247 l3 -235 762 -3 761 -2 26 67 c91
238 154 418 150 425 -3 4 -385 8 -850 8 -674 0 -846 -3 -850 -13z"/>
</g>
</svg>
