<?xml version="1.0" standalone="no"?>
<!DOCTYPE svg PUBLIC "-//W3C//DTD SVG 20010904//EN"
 "http://www.w3.org/TR/2001/REC-SVG-20010904/DTD/svg10.dtd">
<svg version="1.0" xmlns="http://www.w3.org/2000/svg"
 width="800.000000pt" height="800.000000pt" viewBox="0 0 800.000000 800.000000"
 preserveAspectRatio="xMidYMid meet">

<g transform="translate(0.000000,800.000000) scale(0.100000,-0.100000)"
fill="#000000" stroke="none">
<path d="M3879 7586 c-83 -23 -204 -94 -259 -151 -72 -77 -127 -196 -142 -307
l-12 -86 -166 -4 c-165 -3 -166 -3 -233 -36 -86 -43 -131 -88 -171 -171 -25
-53 -31 -82 -34 -148 l-4 -82 -462 -3 c-457 -3 -462 -3 -516 -26 -142 -60
-227 -133 -284 -241 -72 -139 -66 117 -66 -2831 0 -2954 -6 -2692 68 -2834 46
-88 110 -152 198 -198 141 -74 -49 -68 2204 -68 2253 0 2063 -6 2204 68 88 46
152 110 198 198 74 142 68 -120 68 2834 0 2948 6 2692 -66 2831 -57 108 -142
181 -284 241 -54 23 -59 23 -516 26 l-462 3 -4 82 c-3 66 -9 95 -34 148 -40
83 -85 128 -171 171 l-67 33 -173 3 -173 4 0 38 c0 110 -76 285 -160 369 -52
52 -184 123 -260 140 -60 14 -164 12 -221 -3z m206 -365 c47 -27 75 -76 75
-132 l0 -49 -165 0 -165 0 0 43 c0 129 138 204 255 138z m703 -838 l2 -303
-790 0 -790 0 0 305 0 305 788 -2 787 -3 3 -302z m-1926 -265 c4 -118 5 -126
40 -194 41 -80 73 -111 162 -157 l61 -32 875 0 875 0 73 39 c82 44 109 72 155
160 29 57 31 70 35 184 l4 122 437 0 c415 0 438 -1 468 -20 18 -10 40 -31 50
-47 17 -26 18 -83 21 -1030 1 -633 -1 -1003 -7 -1003 -5 0 -12 9 -16 19 -6 21
-66 61 -90 61 -42 0 -96 -35 -135 -87 l-42 -55 -21 20 c-62 56 -66 57 -432 60
-225 2 -357 0 -391 -8 -70 -15 -127 -59 -158 -122 l-26 -52 0 -363 c0 -401 1
-406 63 -472 67 -70 70 -71 478 -71 l365 0 52 26 c29 14 64 41 77 58 50 66 55
99 55 368 l0 249 33 42 c17 23 52 67 77 98 53 66 84 106 105 134 13 18 14
-165 12 -1587 -2 -1605 -2 -1607 -23 -1634 -11 -15 -33 -37 -48 -48 l-27 -21
-2019 0 -2019 0 -27 21 c-15 11 -37 33 -48 48 l-21 27 -3 2602 c-2 1431 0
2626 3 2655 7 55 40 106 79 122 12 5 217 9 457 9 l437 1 4 -122z m2806 -2209
c2 -20 -14 -49 -64 -115 -37 -49 -70 -91 -74 -94 -4 -4 -44 -55 -77 -99 -2 -3
-52 43 -112 102 -102 101 -110 107 -149 107 -59 0 -87 -17 -114 -66 -36 -68
-20 -96 152 -271 80 -82 157 -156 170 -165 24 -16 16 -17 -177 -17 l-203 -1 0
318 c0 175 3 322 7 325 4 4 149 6 322 5 l316 -3 3 -26z m-2 -606 c-4 -10 -30
-13 -98 -12 -63 0 -87 3 -73 9 31 14 56 39 116 113 l54 69 3 -83 c2 -45 1 -88
-2 -96z"/>
<path d="M4954 5606 c-61 -19 -110 -61 -139 -119 l-25 -51 0 -365 c0 -408 1
-411 71 -478 66 -62 71 -63 472 -63 l363 0 53 26 c60 30 102 81 120 146 9 31
11 143 9 393 -3 337 -4 352 -25 390 -25 47 -64 85 -113 111 -32 17 -65 19
-390 21 -271 2 -365 -1 -396 -11z m701 -531 l0 -320 -322 -3 -323 -2 0 318 c0
175 3 322 7 325 4 4 149 6 322 5 l316 -3 0 -320z"/>
<path d="M2151 5192 c-51 -26 -76 -65 -76 -121 0 -60 24 -97 80 -122 42 -19
75 -19 1057 -17 1140 3 1046 -4 1089 80 34 67 13 138 -54 178 -31 19 -59 20
-1047 20 -947 0 -1017 -1 -1049 -18z"/>
<path d="M2148 3724 c-81 -43 -76 -188 8 -227 32 -16 122 -17 1050 -17 1127 0
1064 -4 1097 66 21 43 22 96 2 134 -33 63 27 60 -1102 60 -890 -1 -1032 -3
-1055 -16z"/>
<path d="M5004 2691 c-55 -14 -117 -55 -146 -96 -46 -67 -50 -111 -46 -480 l3
-340 28 -47 c34 -58 81 -95 143 -114 67 -20 680 -20 746 0 64 19 110 57 144
118 l29 53 0 365 c0 354 -1 366 -21 405 -30 55 -64 89 -115 117 -43 23 -48 23
-389 25 -190 1 -359 -2 -376 -6z m664 -220 c9 -6 12 -81 10 -327 l-3 -319
-309 -3 c-219 -2 -313 1 -322 9 -11 9 -14 71 -14 320 0 283 1 309 18 318 20
12 601 14 620 2z"/>
<path d="M2183 2265 c-64 -28 -90 -109 -57 -178 34 -71 -29 -67 1095 -67 982
0 1011 1 1048 20 43 21 76 85 66 124 -17 58 -30 78 -66 97 -37 18 -67 19
-1046 19 -843 -1 -1013 -3 -1040 -15z"/>
</g>
</svg>
